<svg xmlns="http://www.w3.org/2000/svg" viewBox="0 0 239.7 239.7"><defs><style>.cls-1{fill:#fff;stroke:#999;stroke-miterlimit:10;stroke-width:1.95px;}.cls-2{fill:#999;}</style></defs><title>nouser</title><g id="レイヤー_2" data-name="レイヤー 2"><g id="Layer_1" data-name="Layer 1"><circle class="cls-1" cx="119.85" cy="119.85" r="118.87" transform="translate(-49.64 119.85) rotate(-45)"/><path class="cls-2" d="M91.18,138.62c-22,20.06-45.43,18.89-58.92,32.38-3.38,3.38-6.2,10.3-8.52,18.81a118.88,118.88,0,0,0,192.21,0c-2.32-8.51-5.13-15.43-8.52-18.81-13.48-13.49-36.91-12.32-58.92-32.38.14-.16-5.08-5.09-5.27-4.89V121.07c5.9-8.24,9.82-19.41,12.14-30.53a1.45,1.45,0,0,0,.91.92c1.38.23,3.11-2.93,3.84-7.09s.21-7.42-1.07-7.86c2-9.75.94-25.32-3.08-37.32S134.35,22,120.7,21.62v0H119v0C105.34,22,87.77,27,83.71,39.19s-5,27.57-3.07,37.32c-1.29.44-1.78,3.85-1.07,7.86S82,91.69,83.4,91.46c.38-.07.67-.42.92-.92,2.31,11.12,6.24,22.29,12.13,30.53v12.66C96.26,133.53,91,138.46,91.18,138.62Z"/></g></g></svg>