<svg id="レイヤー_1" data-name="レイヤー 1" xmlns="http://www.w3.org/2000/svg" viewBox="0 0 209.07 53.81"><defs><style>.cls-1{fill:#fff;}</style></defs><title>bizlink_logo_w</title><path class="cls-1" d="M872.82,165.59H855.1V113.92H873c10,0,16.39,4.8,16.39,13.66a11.36,11.36,0,0,1-5.46,10,11.81,11.81,0,0,1,7.23,11.29C891.2,159.76,883.9,165.59,872.82,165.59Zm-0.22-42.15h-7.39v9.82h7.9c4.28,0,5.83-2,5.83-4.87C879,125.14,877.11,123.44,872.6,123.44Zm0.59,19h-8v13.36h8c5,0,7.38-2.66,7.38-6.72C880.58,144.63,878.21,142.41,873.19,142.41Z" transform="translate(-855.1 -113.41)"/><path class="cls-1" d="M913,119.1a5.69,5.69,0,1,1-5.69-5.69A5.68,5.68,0,0,1,913,119.1Zm-0.89,43.08-4.79,5-4.8-5V131.68h9.59v30.49Z" transform="translate(-855.1 -113.41)"/><path class="cls-1" d="M987.44,119.37a3.91,3.91,0,1,1-7.81,0A3.91,3.91,0,0,1,987.44,119.37Zm-1.16,46h-5.48V131.68h5.48v33.65Z" transform="translate(-855.1 -113.41)"/><path class="cls-1" d="M1004.91,135.59H1005a10.81,10.81,0,0,1,9.19-4.8c8.91,0,11,6.44,11,14v20.56h-5.48v-19.6c0-5.21-.41-9.87-6.78-9.87-7.54,0-8,7-8,12.75v16.72h-5.48V131.68h5.48v3.91Z" transform="translate(-855.1 -113.41)"/><polygon class="cls-1" points="68.46 26.36 81.2 26.36 68.46 45.43 68.46 51.93 93.41 51.93 93.41 43.84 79.96 43.84 93.41 23.85 93.41 18.27 68.46 18.27 68.46 26.36"/><polygon class="cls-1" points="107.25 4.49 107.25 51.93 112.73 51.93 112.73 0.25 107.25 4.49"/><polygon class="cls-1" points="192.69 33.42 207.83 18.27 200.5 18.27 187.42 31.64 187.42 0.25 181.93 4.49 181.93 51.93 187.42 51.93 187.42 38.7 188.85 37.26 201.81 51.93 209.07 51.93 192.69 33.42"/></svg>