<svg xmlns="http://www.w3.org/2000/svg" width="24" height="24" viewBox="0 0 24 24">
    <path fill="#424242" fill-rule="nonzero" d="M3.99 2C2.89 2 2 2.89 2 3.99v16.02c0 1.1.89 1.99 1.99 1.99h16.02c1.1 0 1.99-.89 1.99-1.99V3.99C22 2.89 21.11 2 20.01 2H3.99zm0-2h16.02A3.989 3.989 0 0 1 24 3.99v16.02A3.989 3.989 0 0 1 20.01 24H3.99A3.989 3.989 0 0 1 0 20.01V3.99A3.989 3.989 0 0 1 3.99 0zm6.045 20v-8H8V9.33h2.035V7.587c0-2.25 1-3.587 3.844-3.587h2.104v2.675h-1.795c-.688-.008-1.188.436-1.18.912.008.476-.004 1.744-.004 1.744H16L15.686 12h-2.682V20h-2.97z"/>
</svg>
