<svg xmlns="http://www.w3.org/2000/svg" viewBox="0 0 100 100"><defs><style>.cls-1{fill:#cc1c2a;}.cls-2{fill:#fff;}</style></defs><title>file-pdf</title><g id="レイヤー_2" data-name="レイヤー 2"><g id="Layer_5" data-name="Layer 5"><rect class="cls-1" width="100" height="100" rx="10" ry="10"/><path class="cls-2" d="M77.34,29.84a9.08,9.08,0,0,1,1.88,3A9,9,0,0,1,80,36.25v45A3.72,3.72,0,0,1,76.25,85H23.75A3.72,3.72,0,0,1,20,81.25V18.75A3.72,3.72,0,0,1,23.75,15h35a9,9,0,0,1,3.44.78,9.24,9.24,0,0,1,3,1.87ZM60,20.31V35H74.69a4.23,4.23,0,0,0-.86-1.6L61.6,21.17A4.23,4.23,0,0,0,60,20.31ZM75,80V40H58.75a3.66,3.66,0,0,1-2.66-1.09A3.62,3.62,0,0,1,55,36.25V20H25V80ZM54.92,56.84A31.52,31.52,0,0,0,58.2,59a39.3,39.3,0,0,1,4.57-.27q5.74,0,6.92,1.91a1.93,1.93,0,0,1,.08,2,.13.13,0,0,1,0,.07l-.08.08v0c-.16,1-1.08,1.49-2.77,1.49a15.91,15.91,0,0,1-4.5-.79,28.82,28.82,0,0,1-5.08-2.07A70.41,70.41,0,0,0,42,64.77Q36,75,32.54,75a2.33,2.33,0,0,1-1.1-.27l-.93-.47-.24-.2a1.59,1.59,0,0,1-.23-1.4,8.4,8.4,0,0,1,2.19-3.58,18.82,18.82,0,0,1,5.15-3.77.57.57,0,0,1,.9.24.22.22,0,0,1,.08.15c1.35-2.21,2.75-4.78,4.18-7.69A59.9,59.9,0,0,0,46.6,47.77a31.89,31.89,0,0,1-1.19-6.23,15.41,15.41,0,0,1,.25-5C46,35.52,46.5,35,47.3,35h.86a1.62,1.62,0,0,1,1.37.59,3.08,3.08,0,0,1,.35,2.65.8.8,0,0,1-.15.31,1.32,1.32,0,0,1,0,.32V40a52.65,52.65,0,0,1-.55,7.5Q51.36,53.95,54.92,56.84Zm-22.5,16q2-.93,5.35-6.17A22.35,22.35,0,0,0,34.35,70,13.14,13.14,0,0,0,32.42,72.89ZM48,37a11.61,11.61,0,0,0-.08,5.16c0-.18.12-.76.27-1.72,0-.08.09-.64.28-1.68a.88.88,0,0,1,.15-.31s0,0,0-.08,0,0,0-.06,0,0,0-.06A2.27,2.27,0,0,0,48,36.8a.13.13,0,0,1,0,.07ZM43.12,62.77a57.66,57.66,0,0,1,11.1-3.16l-.51-.37a6.07,6.07,0,0,1-.62-.53,20.74,20.74,0,0,1-5-6.87,51.56,51.56,0,0,1-3.24,7.69C44.1,61,43.52,62.07,43.12,62.77Zm25.24-.62c-.62-.63-2.45-.94-5.47-.94a14.77,14.77,0,0,0,4.85,1.1,4.46,4.46,0,0,0,.7,0S68.41,62.2,68.36,62.15Z"/></g></g></svg>