<svg xmlns="http://www.w3.org/2000/svg" viewBox="0 0 100 100"><defs><style>.cls-1{fill:#186a3a;}.cls-2{fill:#fff;}</style></defs><title>file-exel</title><g id="レイヤー_2" data-name="レイヤー 2"><g id="Layer_5" data-name="Layer 5"><rect class="cls-1" width="100" height="100" rx="10" ry="10"/><path class="cls-2" d="M55.85,17.19V10.8L10.12,18.92V81.08L55.85,89.2V81.13h34V17.19ZM36.4,63.09,32.56,53l-3.77,9.54H23.55l6.13-13.32L24,36.19h5.39l3.47,9L37,35.44l5.17-.27-6.46,14,6.72,14.41ZM88.33,77.83a1.62,1.62,0,0,1-1.59,1.64H55.85V74.22H67.48V66H55.85V63.52H67.48V55.33H55.85V52.87H67.48V44.69H55.85V42.22H67.48V34H55.85V31.58H67.48V23.39H55.85V18.85H86.74a1.62,1.62,0,0,1,1.59,1.64Z"/><rect class="cls-2" x="69.87" y="55.33" width="13.1" height="8.19"/><rect class="cls-2" x="69.87" y="34.04" width="13.1" height="8.19"/><rect class="cls-2" x="69.87" y="66.03" width="13.1" height="8.19"/><rect class="cls-2" x="69.87" y="44.69" width="13.1" height="8.19"/><rect class="cls-2" x="69.87" y="23.39" width="13.1" height="8.19"/></g></g></svg>