<svg xmlns="http://www.w3.org/2000/svg" width="24" height="24" viewBox="0 0 24 24">
    <path fill="#424242" fill-rule="evenodd" d="M8.941 17.655H6.226V9.484H8.94v8.17zM7.584 8.369h-.018c-.911 0-1.5-.628-1.5-1.413 0-.8.607-1.411 1.536-1.411s1.5.61 1.518 1.411c0 .785-.59 1.413-1.536 1.413zm11.15 9.286H16.02v-4.372c0-1.098-.393-1.847-1.376-1.847-.75 0-1.197.505-1.393.993-.072.175-.09.419-.09.663v4.563h-2.715s.035-7.404 0-8.17h2.715v1.156c.36-.556 1.006-1.349 2.448-1.349 1.787 0 3.127 1.168 3.127 3.678v4.685zM3.99 2C2.89 2 2 2.89 2 3.99v16.02c0 1.1.89 1.99 1.99 1.99h16.02c1.1 0 1.99-.89 1.99-1.99V3.99C22 2.89 21.11 2 20.01 2H3.99zm0-2h16.02A3.989 3.989 0 0 1 24 3.99v16.02A3.989 3.989 0 0 1 20.01 24H3.99A3.989 3.989 0 0 1 0 20.01V3.99A3.989 3.989 0 0 1 3.99 0z"/>
</svg>
