<svg xmlns="http://www.w3.org/2000/svg" width="50" height="60" viewBox="0 0 50 60">
    <g fill="none" fill-rule="evenodd" transform="translate(-263 -22)">
        <rect width="120" height="120" x="228" fill="#F2F2F2" rx="4"/>
        <path fill="#B4B4B4" d="M272 77l23.894-24L308 63.172V77h-36zm16-50l20 19.791v9.515l-10.462-8.79a2.553 2.553 0 0 0-3.565 0L268 73V27h20zm3.473-3.595A4.992 4.992 0 0 0 288 22h-20c-2.76 0-5 2.24-5 5v50c0 2.76 2.24 5 5 5h40a5 5 0 0 0 5-5V47c0-1.358-.55-2.655-1.525-3.597l-20.002-19.998zM272 39.5c0 4.143 3.357 7.5 7.5 7.5s7.5-3.357 7.5-7.5-3.357-7.5-7.5-7.5a7.499 7.499 0 0 0-7.5 7.5zm7.5 2.5a2.5 2.5 0 1 0 0-5 2.5 2.5 0 0 0 0 5z"/>
    </g>
</svg>
